<svg viewBox="0 0 58 14" fill="none" xmlns="http://www.w3.org/2000/svg">
  <path d="M51.537 3.04a.554.554 0 0 0-.394-.165H27.56a.554.554 0 0 0-.554.554v7.39a.554.554 0 0 1-.555.554H21.03a.554.554 0 0 1-.554-.553V3.43a.554.554 0 0 0-.555-.555H3.406a.554.554 0 0 0-.394.164L.16 5.915a.554.554 0 0 0-.16.39v6.638c0 .306.248.554.554.554h1.018a.554.554 0 0 0 .554-.554V10.88c0-.306.248-.554.554-.554h4.192c.307 0 .555.248.555.554v2.063c0 .306.248.554.554.554h1.002a.554.554 0 0 0 .555-.554v-7.39c0-.305.247-.553.554-.553h2.247c.307 0 .555.248.555.554v7.39c0 .306.248.554.554.554h1.017a.554.554 0 0 0 .555-.554v-7.39c0-.306.247-.554.554-.554h2.217c.307 0 .555.248.555.554v7.39c0 .306.248.554.554.554h16.571a.554.554 0 0 0 .555-.554v-1.016a.554.554 0 0 0-.555-.554h-5.787a.554.554 0 0 1-.555-.554v-1c0-.307.248-.555.555-.555h5.256a.554.554 0 0 0 .554-.553V7.695a.554.554 0 0 0-.554-.553h-5.256a.554.554 0 0 1-.555-.554V5.556c0-.306.248-.554.555-.554h8.992c.307 0 .554.248.554.554v7.39c0 .306.248.554.555.554h1.017a.554.554 0 0 0 .554-.554V5.554c0-.306.248-.554.555-.554h2.54c.306 0 .554.248.554.554v7.39c0 .306.248.554.554.554h1.003a.554.554 0 0 0 .554-.554v-2.063c0-.306.248-.554.554-.554h4.192c.307 0 .555.248.555.554v2.063c0 .306.247.554.554.554h1.017a.554.554 0 0 0 .555-.554v-6.64a.553.553 0 0 0-.16-.39L51.53 3.04h.006ZM6.873 8.201H2.681a.554.554 0 0 1-.554-.554v-.282c0-.145.058-.285.16-.388l1.788-1.813A.557.557 0 0 1 4.47 5h2.403c.307 0 .555.248.555.554v2.094a.554.554 0 0 1-.555.554Zm40.803 0a.554.554 0 0 1-.554-.554V5.554c0-.306.248-.554.554-.554h2.404c.148 0 .29.06.395.165l1.79 1.813a.552.552 0 0 1 .159.388v.282a.554.554 0 0 1-.555.554h-4.193ZM55.833.5c.3 0 .588.075.863.225.276.15.492.365.65.644a1.756 1.756 0 0 1 .004 1.748c-.155.275-.37.491-.647.645a1.763 1.763 0 0 1-.87.232c-.305 0-.595-.078-.871-.232a1.644 1.644 0 0 1-.646-.645 1.756 1.756 0 0 1 .004-1.748c.157-.28.374-.494.648-.644A1.78 1.78 0 0 1 55.831.5h.002Zm.002.342c-.24 0-.47.06-.691.18a1.31 1.31 0 0 0-.522.517 1.412 1.412 0 0 0-.004 1.407 1.413 1.413 0 0 0 1.218.707 1.414 1.414 0 0 0 1.22-.707 1.411 1.411 0 0 0-.003-1.407 1.306 1.306 0 0 0-.523-.517 1.43 1.43 0 0 0-.693-.18h-.002Zm-.792.485h.376c.354 0 .55.002.594.005a.73.73 0 0 1 .29.075.523.523 0 0 1 .243.443.486.486 0 0 1-.131.343.596.596 0 0 1-.369.177c.057.021.1.045.13.07a.821.821 0 0 1 .126.142c.014.018.06.093.138.226l.218.374h-.465l-.155-.302c-.105-.202-.193-.329-.26-.382a.412.412 0 0 0-.26-.078h-.099v.762h-.376V1.327Zm.376.8h.154c.218 0 .352-.007.405-.024a.24.24 0 0 0 .124-.088.234.234 0 0 0 .046-.142.226.226 0 0 0-.045-.138.238.238 0 0 0-.126-.087c-.055-.018-.19-.025-.404-.025h-.154v.506-.001Z" fill="#000"/>
</svg>
